<svg width="24" height="24" viewBox="0 0 24 24" fill="none" xmlns="http://www.w3.org/2000/svg">
<path d="M23.8 12C23.8 18.517 18.517 23.8 12 23.8C5.48304 23.8 0.2 18.517 0.2 12C0.2 5.48304 5.48304 0.2 12 0.2C18.517 0.2 23.8 5.48304 23.8 12Z" fill="#FF3B00" stroke="#FF3B00" stroke-width="0.4"/>
<path d="M4 15.9798C4 15.9798 5.41169 7.74007 7.06265 8.11664C9.08117 8.57705 5.6515 16.3788 8.37347 15.9798C10.9346 15.6043 7.48616 8.40477 10.0556 8.11663C12.7037 7.81967 9.75587 16.1815 12.4105 15.9798C15.0845 15.7766 10.7284 8.11663 13.4198 8.11664C16.1111 8.11665 13.6322 15.5609 15.7747 15.9798C18.1297 16.4402 15.0751 8.90294 16.4207 8.11663C18.5484 6.87337 20 15.9798 20 15.9798" stroke="#F4F1E6" stroke-width="0.6"/>
</svg>
