<svg width="60" height="60" viewBox="0 0 60 60" fill="none" xmlns="http://www.w3.org/2000/svg">
<path d="M18.5482 46.3477L16 17.767H44L41.4491 46.3432L29.9829 49.5221L18.5482 46.3477Z" fill="#F4F1E6"/>
<path d="M39.2653 44.5236L41.4452 20.1039H30V47.0923L39.2653 44.5236Z" fill="#F4F1E6"/>
<path d="M21.8416 30.7041L22.1558 34.2094H30V30.7041H21.8416Z" fill="#5F6A3E"/>
<path d="M21.529 27.1146H30V23.6093H29.9879H21.2104L21.529 27.1146Z" fill="#5F6A3E"/>
<path d="M29.9839 43.4592L30 43.4547V39.8077L29.9846 39.8118L26.0807 38.7577L25.8312 35.9621H23.9342H22.3124L22.8035 41.4659L29.9839 43.4592Z" fill="#5F6A3E"/>
<path d="M22.5896 10H26.8351V11.7754H24.365V13.5508H26.8351V15.3262H22.5896V10Z" fill="#F4F1E6"/>
<path d="M27.6842 10H31.9298V11.5438H29.4596V11.8526H31.9298V15.4034H27.6842V13.7824H30.1544V13.4736H27.6842V10Z" fill="#F4F1E6"/>
<path d="M32.7789 10H37.0244V11.5438H34.5543V11.8526H37.0244V15.4034H32.7789V13.7824H35.249V13.4736H32.7789V10Z" fill="#F4F1E6"/>
<path d="M38.7687 23.6093H29.9879V27.1146H34.9272L34.6082 30.7041H29.9879V34.2094H34.3042L33.8974 38.7555L29.9879 39.8107V43.4575L37.1739 41.4659L37.2266 40.8737L38.0504 31.6454L38.1359 30.7041L38.7687 23.6093Z" fill="#5F6A3E"/>
</svg>
