<svg width="60" height="60" viewBox="0 0 60 60" fill="none" xmlns="http://www.w3.org/2000/svg">
<path d="M19.5402 10H21.1974V11.7523H22.713V10H24.3702V15.3068H22.713V13.5327H21.1974V15.3068H19.5402V10ZM26.549 11.7601H25.0874V10.0003H29.6625V11.7601H28.203V15.3074H26.5458V11.7601H26.549ZM30.3887 10H32.1166L33.1795 11.8675L34.2413 10H35.9668V15.3068H34.3166V12.6761L33.1769 14.5632H33.1484L32.0128 12.6764V15.3071H30.3916L30.3887 10ZM36.7937 10H38.4509V13.556H40.7811V15.3102H36.7939L36.7937 10Z" fill="#F4F1E6"/>
<path d="M16 18.0185H44L41.4493 46.5946L29.9836 49.7737L18.5489 46.599L16 18.0185Z" fill="#F4F1E6"/>
<path d="M39.3296 44.7758L41.5095 20.3558H30.0721V47.3442L39.3296 44.7758Z" fill="#F4F1E6"/>
<path d="M25.4257 30.956L25.1053 27.3663H30.0721V23.8615H21.2837L22.2289 34.4616H30.0721V30.9569L25.4257 30.956ZM22.3758 36.2149L22.867 41.7198L30.0474 43.7129L30.0633 43.7085V40.0621L30.0482 40.0666L26.1541 39.0045L25.9045 36.2078H24.0078L22.3758 36.2149Z" fill="#5F6A3E"/>
<path d="M38.1136 31.8959L38.1995 30.9542H30.0518V34.4589H34.3681L33.961 39.0054L30.0518 40.0604V43.7067L37.2383 41.7154L37.2914 41.1224L38.1136 31.8959ZM30.0598 27.3662H38.5269L38.8411 23.8526H30.0598V27.3485V27.3662Z" fill="#5F6A3E"/>
</svg>
