<svg width="60" height="60" viewBox="0 0 60 60" fill="none" xmlns="http://www.w3.org/2000/svg">
<path d="M12 36.8479C12 36.2987 12.0791 35.8353 12.2362 35.4599C12.3878 35.1021 12.6236 34.7836 12.9247 34.5297C13.2223 34.2923 13.5685 34.1188 13.9404 34.0205C14.3277 33.9152 14.7434 33.8625 15.1922 33.8625C15.5967 33.8601 15.9995 33.9132 16.3885 34.0205C16.7747 34.1257 17.1137 34.2951 17.4042 34.5297C17.6947 34.7642 17.9238 35.0743 18.0927 35.4599C18.2616 35.8353 18.3466 36.2975 18.3466 36.8479C18.3466 37.3743 18.2616 37.8252 18.0927 38.2005C17.9375 38.5563 17.7022 38.8741 17.4042 39.1308C17.1149 39.3768 16.7759 39.5519 16.3885 39.6571C16.0016 39.7757 15.598 39.8347 15.1922 39.8322C14.7434 39.8322 14.3277 39.775 13.9404 39.6571C13.5653 39.5579 13.2181 39.378 12.9247 39.1308C12.6342 38.8847 12.4051 38.5746 12.2362 38.2005C12.0791 37.8263 12 37.3766 12 36.8479ZM22.2226 48C21.6321 48 21.044 47.9588 20.4275 47.8776C19.811 47.7963 19.2973 47.6899 18.8875 47.5617V43.3474C19.2619 43.4641 19.6126 43.5465 19.9504 43.5934C20.3154 43.6546 20.6854 43.6841 21.0558 43.6815C21.3581 43.6815 21.6416 43.6358 21.9061 43.5408C22.1887 43.4608 22.4372 43.2946 22.6147 43.0671C22.8202 42.8451 22.9832 42.5407 23.1036 42.1539C23.2241 41.7797 23.2843 41.2934 23.2843 40.6961V19.7274H28.8113V41.4857C28.8113 42.3874 28.6909 43.2295 28.4488 44.0031C28.239 44.7665 27.8479 45.4718 27.3068 46.0628C26.7871 46.6601 26.1104 47.1269 25.2755 47.4679C24.4405 47.8089 23.4272 47.9771 22.2309 47.9771M23.0576 14.6285C23.0576 14.125 23.1367 13.7097 23.2938 13.3698C23.4508 13.03 23.6622 12.7611 23.928 12.562C24.2055 12.3514 24.5255 12.2049 24.8881 12.1226C25.2625 12.0402 25.6557 12.0001 26.0667 12.0001C26.4569 11.9975 26.846 12.0386 27.2265 12.1226C27.5714 12.1967 27.8939 12.347 28.1689 12.562C28.4553 12.7715 28.68 13.05 28.8208 13.3698C28.9897 13.6982 29.0747 14.1136 29.0747 14.6285C29.0747 15.1205 28.9897 15.5359 28.8208 15.8872C28.6637 16.227 28.4464 16.5017 28.1689 16.7111C27.8884 16.9174 27.5679 17.0668 27.2265 17.1505C26.8461 17.2348 26.4569 17.2763 26.0667 17.2741C25.6557 17.2741 25.2637 17.234 24.8881 17.1505C24.5422 17.0642 24.2164 16.9151 23.928 16.7111C23.6622 16.5005 23.4508 16.2248 23.2938 15.8872C23.1367 15.5496 23.0576 15.132 23.0576 14.6285ZM48 33.5296C48 34.5594 47.8063 35.4611 47.4095 36.2335C47.0306 36.9982 46.4641 37.6613 45.7597 38.165C45.0464 38.6799 44.1831 39.0667 43.1674 39.3241C42.1518 39.5816 41.018 39.7109 39.7603 39.7109C39.0954 39.7109 38.4789 39.688 37.912 39.6423C37.3707 39.6101 36.8319 39.5455 36.2988 39.4489C35.791 39.355 35.302 39.2383 34.8308 39.0976C34.343 38.9509 33.8649 38.7751 33.3995 38.5712V34.1475C33.9073 34.3935 34.4387 34.6052 34.9938 34.8146L36.6791 35.3409L38.2923 35.6751C38.7775 35.7533 39.2684 35.7942 39.7603 35.7975C40.2563 35.7975 40.6791 35.7575 41.0286 35.6751C41.3794 35.5812 41.6628 35.4462 41.8789 35.3066C42.1081 35.143 42.2722 34.9553 42.3679 34.7345C42.4758 34.515 42.5314 34.275 42.5309 34.0319C42.5309 33.7859 42.4883 33.5696 42.4045 33.3819C42.3336 33.1828 42.1683 32.978 41.8789 32.7675C41.6014 32.5455 41.1904 32.3098 40.646 32.0306L38.4895 31.0007L36.1866 29.8587C35.5465 29.472 35.0151 29.0578 34.5923 28.5772C34.1803 28.1072 33.8663 27.5643 33.6676 26.9786C33.4621 26.3699 33.3605 25.6513 33.3605 24.8182C33.3605 23.9051 33.5412 23.1087 33.9037 22.4301C34.2634 21.7426 34.7923 21.1515 35.4438 20.7092C36.1087 20.2514 36.9058 19.9127 37.8364 19.6793C38.7789 19.4447 39.824 19.328 40.972 19.328C42.1801 19.328 43.328 19.463 44.4157 19.7319C45.5034 20.0009 46.6206 20.4048 47.7697 20.9449L46.1022 24.7381C45.1833 24.317 44.3071 23.9715 43.4745 23.7026C42.6687 23.4379 41.824 23.3015 40.9731 23.2986C40.2244 23.2986 39.68 23.4279 39.3434 23.6854C39.0174 23.9429 38.8544 24.2942 38.8544 24.7381C38.8544 24.9727 38.897 25.1958 38.9808 25.3709C39.0658 25.5471 39.2347 25.7336 39.4886 25.943C39.7425 26.1307 40.0992 26.3413 40.5574 26.5747L42.3525 27.3986L44.672 28.4856C45.3189 28.8082 45.9166 29.216 46.4482 29.6974C46.9391 30.1478 47.328 30.6922 47.5902 31.2959C47.8559 31.9047 47.9894 32.6427 47.9894 33.509" fill="#F4F1E6"/>
</svg>
