<svg width="120" height="60" viewBox="0 0 120 60" fill="none" xmlns="http://www.w3.org/2000/svg">
<path d="M44.37 27.572C44.37 25.972 42.835 24.294 40.167 24.294C37.175 24.294 33.89 26.497 33.387 30.894C32.873 35.334 35.624 37.307 38.397 37.307C41.17 37.307 42.622 36.222 44.107 34.775C42.83 33.165 41.181 33.909 40.865 34.073C40.3419 34.3645 39.7495 34.5086 39.151 34.49C38.081 34.49 36.989 34.008 36.989 32.002C43.845 31.322 44.37 29.162 44.37 27.572ZM40.972 27.835C40.928 28.328 40.732 29.172 37.26 29.645C37.99 27.035 39.39 26.839 40.033 26.839C40.1633 26.833 40.2934 26.8552 40.4144 26.904C40.5354 26.9528 40.6444 27.027 40.7342 27.1217C40.8239 27.2164 40.8922 27.3293 40.9345 27.4527C40.9767 27.5761 40.9919 27.7072 40.979 27.837L40.972 27.835ZM29.36 28.263L27.766 33.295L26.641 24.558C24.131 24.558 22.781 26.356 22.077 28.252L20.133 33.306L19.86 28.306C19.712 25.982 17.59 24.568 15.875 24.568L17.949 37.208C20.579 37.198 21.999 35.41 22.742 33.514L24.386 29.217C24.401 29.392 25.522 37.209 25.522 37.209C28.164 37.209 29.584 35.532 30.345 33.701L34.045 24.569C31.44 24.569 30.067 26.356 29.358 28.263H29.36ZM54.066 24.263C52.439 24.263 51.196 25.151 50.146 26.455V26.445L51.084 18.848C48.922 18.848 47.164 20.734 46.826 23.54L45.2 37.11C46.445 37.11 47.766 36.748 48.476 35.827C49.11 36.649 50.059 37.307 51.468 37.307C55.114 37.307 57.615 33.054 57.615 29.063C57.593 25.423 55.835 24.273 54.077 24.273L54.066 24.263ZM53.726 30.786C53.346 33.011 52.11 34.524 50.921 34.524C49.732 34.524 49.207 33.987 49.207 33.987C49.437 32.037 49.579 30.841 50.015 29.81C50.451 28.779 51.489 27.135 52.57 27.135C53.63 27.135 54.11 28.549 53.727 30.785L53.726 30.786ZM66.708 24.559H64.164L64.174 24.427C64.349 22.761 64.742 21.884 66.038 21.741C66.923 21.653 67.316 21.193 67.414 20.689L67.731 18.924C62.631 18.891 61.017 21.104 60.606 24.482L60.596 24.559H60.541C59.711 24.559 58.795 25.502 58.641 26.697L58.586 27.135H60.29L58.86 38.995L58.422 41.122C58.477 41.122 58.542 41.132 58.596 41.132C60.986 41.044 62.516 39.148 62.854 36.396L63.97 27.133H64.77C65.556 27.133 66.474 26.343 66.634 25.028L66.708 24.559ZM79.94 24.339C77.003 24.339 74.23 26.509 73.38 29.919C72.53 33.329 73.818 37.362 78.14 37.362C82.462 37.362 84.937 33.162 84.937 29.666C84.941 26.191 82.595 24.338 79.941 24.338L79.94 24.339ZM81.13 30.675C80.978 32.221 80.3 34.567 78.444 34.567C76.588 34.567 76.839 31.827 77.019 30.522C77.216 29.13 77.991 27.146 79.661 27.146C81.163 27.146 81.304 28.933 81.131 30.676L81.13 30.675ZM99.45 28.252L97.856 33.284C97.813 32.889 96.732 24.547 96.732 24.547C94.222 24.547 92.878 26.345 92.174 28.241L90.23 33.295C90.22 32.933 89.957 28.295 89.957 28.295C89.799 25.971 87.679 24.557 85.957 24.557L88.02 37.197C90.65 37.187 92.07 35.399 92.813 33.503L94.451 29.206C94.461 29.381 95.587 37.198 95.587 37.198C98.229 37.198 99.643 35.521 100.41 33.69L104.113 24.558C101.515 24.558 100.139 26.345 99.44 28.252H99.45ZM69.11 18.922L66.97 36.252L66.532 38.39C66.586 38.39 66.652 38.4 66.706 38.4C69.008 38.367 70.646 36.34 70.953 33.785L72.186 23.842C72.56 20.805 70.759 18.92 69.11 18.92V18.922Z" fill="#F4F1E6"/>
</svg>
