<svg width="77" height="60" viewBox="0 0 77 60" fill="none" xmlns="http://www.w3.org/2000/svg">
<path d="M41.7575 20.3791C40.8992 20.9191 40.58 21.8291 40.58 24.3451C40.895 24.0051 41.2608 23.7381 41.6592 23.5611C42.0523 23.3829 42.4232 23.141 42.7617 22.8421C43.4867 22.2051 43.5983 21.3841 43.5983 20.0021C43.5983 20.0021 42.4167 19.9621 41.7567 20.3781" fill="#F4F1E6"/>
<path d="M36.67 20.9671C36.2226 21.4905 35.9089 22.1562 35.7658 22.8861L33.4492 33.6531L31.5225 24.8411C31.335 23.9041 30.9975 22.7461 30.4625 21.9631C29.7808 20.9651 28.3958 20.9031 28.2475 20.9031C28.0992 20.9031 26.7142 20.9651 26.0325 21.9631C25.4975 22.7461 25.1592 23.9031 24.9717 24.8411L23.055 33.6531L20.7383 22.8861C20.5961 22.1558 20.2826 21.4896 19.835 20.9661C18.7017 19.7661 17 20.0231 17 20.0231L21.435 40.1451C21.435 40.1451 22.8983 40.2711 23.63 39.8231C24.5917 39.2351 25.0492 38.7811 25.6317 36.0431L27.7358 25.9231C27.8025 25.6711 27.8875 25.0681 28.2567 25.0681C28.6342 25.0681 28.7117 25.6701 28.7775 25.9231C28.9108 26.4231 30.3633 33.6031 30.8817 36.0431C31.4633 38.7801 31.9217 39.2351 32.8817 39.8231C33.6133 40.2711 35.0767 40.1451 35.0767 40.1451L39.51 20.0231C39.51 20.0231 37.81 19.7661 36.675 20.9661M43.6042 23.2991C43.36 23.687 43.0494 24.0075 42.6933 24.2391C42.2867 24.5111 41.8967 24.6961 41.4783 24.9371C40.7767 25.3411 40.5867 25.7911 40.5867 26.4771V40.1371C40.5867 40.1371 41.7058 40.3071 42.4367 39.8591C43.3783 39.2831 43.6033 38.7271 43.6033 36.2251L43.6042 23.2991ZM54.6508 30.1331L60.2775 20.0901C60.2775 20.0901 57.9025 19.6051 56.7275 20.8901C56.1379 21.5959 55.6042 22.3659 55.1333 23.1901L53.0633 26.7721C53.0334 26.8847 52.9746 26.9831 52.8953 27.0532C52.8159 27.1232 52.7202 27.1614 52.6217 27.1621C52.4192 27.1621 52.2408 27.0051 52.18 26.7621L50.1158 23.1991C49.645 22.3751 49.1117 21.6051 48.5217 20.8991C47.355 19.6151 44.9717 20.0991 44.9717 20.0991L50.5983 30.1421L44.9858 40.1541C44.9858 40.1541 47.4592 40.5281 48.6342 39.2541C49.1893 38.5988 49.6856 37.8756 50.115 37.0961L52.1858 33.5141C52.2157 33.4015 52.2746 33.3031 52.3539 33.2331C52.4332 33.163 52.529 33.1249 52.6275 33.1241C52.83 33.1241 53.0083 33.2811 53.0692 33.5241L55.1392 37.1061C55.5892 37.8811 56.1 38.6031 56.6642 39.2641C57.8308 40.5481 60.27 40.1641 60.27 40.1641L54.6583 30.1521" fill="#F4F1E6"/>
</svg>
