<svg width="120" height="60" viewBox="0 0 120 60" fill="none" xmlns="http://www.w3.org/2000/svg">
<path d="M55.5 40.9H50.88V41.38C52.324 41.38 52.564 41.68 52.564 43.498V46.771C52.564 48.601 52.324 48.937 50.88 48.937C49.773 48.793 49.003 48.167 47.992 47.06L46.789 45.76C48.377 45.46 49.244 44.46 49.244 43.354C49.244 41.958 48.041 40.851 45.779 40.851H41.255V41.331C42.699 41.331 42.939 41.631 42.939 43.449V46.722C42.939 48.552 42.699 48.888 41.255 48.888V49.368H46.357V48.888C44.913 48.888 44.673 48.551 44.673 46.722V45.808H45.106L47.946 49.368H55.454C59.16 49.368 60.748 47.395 60.748 45.085C60.796 42.823 59.208 40.898 55.502 40.898L55.5 40.9ZM44.72 45.087V41.68H45.78C46.935 41.68 47.464 42.498 47.464 43.413C47.464 44.328 46.934 45.097 45.78 45.097L44.72 45.087ZM55.597 48.647H55.404C54.49 48.647 54.344 48.407 54.344 47.251V41.671H55.594C58.289 41.671 58.77 43.644 58.77 45.136C58.77 46.724 58.24 48.649 55.594 48.649L55.597 48.647ZM26.912 46.06L28.692 40.814C29.222 39.274 28.992 38.841 27.344 38.841V38.311H32.204V38.841C30.568 38.841 30.184 39.226 29.557 41.103L26.62 49.9H26.235L23.588 41.863L20.94 49.9H20.603L17.763 41.093C17.137 39.216 16.763 38.831 15.26 38.831V38.301H20.94V38.831C19.4 38.831 19.015 39.168 19.544 40.804L21.277 46.05L23.877 38.3H24.357L26.912 46.06ZM35.67 49.815C32.83 49.815 30.52 47.745 30.52 45.195C30.52 42.692 32.82 40.575 35.67 40.575C38.52 40.575 40.82 42.645 40.82 45.195C40.82 47.745 38.52 49.815 35.67 49.815ZM35.67 41.345C33.312 41.345 32.494 43.463 32.494 45.147C32.494 46.831 33.312 48.949 35.67 48.949C38.076 48.949 38.895 46.831 38.895 45.147C38.895 43.511 38.077 41.345 35.67 41.345ZM67.147 48.948V49.478H61.227V48.948C62.96 48.948 63.247 48.515 63.247 45.916V41.776C63.247 39.176 62.947 38.792 61.227 38.792V38.262H66.569C69.216 38.262 70.709 39.61 70.709 41.438C70.709 43.218 69.217 44.614 66.569 44.614H65.125V45.962C65.125 48.512 65.425 48.946 67.145 48.946L67.147 48.948ZM66.569 39.226H65.125V43.702H66.569C68.013 43.702 68.687 42.702 68.687 41.488C68.687 40.274 68.013 39.226 66.569 39.226ZM88.372 47.07L88.228 47.55C87.988 48.416 87.698 48.705 85.87 48.705H85.533C84.185 48.705 83.945 48.405 83.945 46.587V45.384C85.965 45.384 86.111 45.577 86.111 46.924H86.591V43.074H86.111C86.111 44.422 85.967 44.614 83.945 44.614V41.73H85.341C87.171 41.73 87.459 42.03 87.699 42.885L87.843 43.365H88.276L88.083 40.959H80.527V41.439C81.971 41.439 82.211 41.739 82.211 43.557V46.83C82.211 48.514 82.018 48.948 80.863 48.996C79.803 48.852 79.033 48.226 78.023 47.119L76.82 45.819C78.408 45.519 79.275 44.519 79.275 43.413C79.275 42.017 78.072 40.91 75.81 40.91H71.286V41.39C72.73 41.39 72.97 41.69 72.97 43.508V46.781C72.97 48.611 72.73 48.947 71.286 48.947V49.427H76.388V48.947C74.944 48.947 74.704 48.61 74.704 46.781V45.867H75.137L77.977 49.427H88.565L88.709 47.021H88.372V47.07ZM74.752 45.097V41.68H75.812C76.967 41.68 77.496 42.498 77.496 43.413C77.496 44.328 76.966 45.097 75.812 45.097H74.752Z" fill="#F4F1E6"/>
<path d="M93.618 49.815C92.608 49.815 91.693 49.285 91.318 48.949C91.174 49.093 90.981 49.479 90.885 49.815H90.405V46.255H90.935C91.128 47.939 92.331 48.95 93.823 48.95C94.641 48.95 95.315 48.47 95.315 47.7C95.315 47.026 94.737 46.497 93.679 46.016L92.235 45.342C91.225 44.862 90.455 43.994 90.455 42.887C90.455 41.637 91.61 40.587 93.198 40.587C94.064 40.587 94.786 40.877 95.218 41.261C95.362 41.165 95.458 40.876 95.555 40.587H96.035V43.619H95.505C95.312 42.416 94.639 41.405 93.291 41.405C92.569 41.405 91.895 41.838 91.895 42.465C91.895 43.139 92.425 43.475 93.675 44.053L95.071 44.727C96.321 45.305 96.804 46.267 96.804 47.027C96.756 48.663 95.36 49.817 93.628 49.817L93.618 49.815Z" fill="#F4F1E6"/>
<path d="M101.56 49.815C100.55 49.815 99.635 49.285 99.26 48.949C99.116 49.093 98.923 49.479 98.827 49.815H98.347V46.255H98.877C99.07 47.939 100.273 48.95 101.765 48.95C102.583 48.95 103.257 48.47 103.257 47.7C103.257 47.026 102.679 46.497 101.621 46.016L100.177 45.342C99.167 44.862 98.397 43.994 98.397 42.887C98.397 41.637 99.552 40.587 101.14 40.587C102.006 40.587 102.728 40.877 103.16 41.261C103.304 41.165 103.4 40.876 103.497 40.587H103.977V43.619H103.447C103.254 42.416 102.581 41.405 101.233 41.405C100.511 41.405 99.837 41.838 99.837 42.465C99.837 43.139 100.367 43.475 101.617 44.053L103.013 44.727C104.263 45.305 104.746 46.267 104.746 47.027C104.698 48.663 103.302 49.817 101.57 49.817L101.56 49.815Z" fill="#F4F1E6"/>
<path d="M46.803 19.485C46.803 24.719 49.81 29.229 54.209 31.345L47.973 14.14C47.249 15.81 46.803 17.591 46.803 19.485ZM68.91 18.815C68.91 17.2 68.297 16.031 67.796 15.195C67.128 14.081 66.516 13.19 66.516 12.077C66.516 10.852 67.463 9.737 68.743 9.737H68.91C66.57 7.569 63.452 6.287 60.01 6.287C55.388 6.343 51.38 8.681 48.985 12.245H49.82C51.212 12.245 53.328 12.078 53.328 12.078C54.052 12.022 54.108 13.08 53.428 13.192C53.428 13.192 52.704 13.292 51.925 13.292L56.725 27.547L59.62 18.917L57.56 13.293L56.168 13.193C55.444 13.137 55.555 12.079 56.224 12.079C56.224 12.079 58.396 12.246 59.676 12.246C61.068 12.246 63.184 12.079 63.184 12.079C63.908 12.023 63.964 13.081 63.284 13.193C63.284 13.193 62.56 13.293 61.781 13.293L66.581 27.493L67.917 23.093C68.474 21.255 68.919 19.975 68.919 18.805L68.91 18.815ZM60.223 20.655L56.27 32.125C57.44 32.459 58.72 32.682 60 32.682C61.56 32.682 63.007 32.404 64.4 31.958C64.344 31.902 64.344 31.858 64.3 31.791L60.223 20.655ZM71.583 13.195L71.683 14.531C71.683 15.867 71.46 17.371 70.681 19.264L66.681 30.901C70.579 28.618 73.251 24.386 73.251 19.486C73.195 17.203 72.583 15.086 71.581 13.194L71.583 13.195ZM60 4.116C51.536 4.116 44.632 11.021 44.632 19.484C44.632 27.947 51.536 34.853 60 34.853C68.464 34.853 75.368 27.948 75.368 19.485C75.368 11.022 68.464 4.116 60 4.116ZM60 34.184C51.926 34.184 45.356 27.614 45.356 19.484C45.356 11.4 51.926 4.84 60 4.84C68.074 4.84 74.644 11.41 74.644 19.484C74.644 27.614 68.074 34.184 60 34.184Z" fill="#F4F1E6"/>
</svg>
