<svg width="24" height="24" viewBox="0 0 24 24" fill="none" xmlns="http://www.w3.org/2000/svg">
<rect width="24" height="24" rx="12" fill="#FF3B00"/>
<path d="M7.2 16.75C6.87 16.75 6.5875 16.6307 6.3525 16.392C6.1175 16.1533 6 15.8664 6 15.5312V8.21875C6 7.88359 6.1175 7.59668 6.3525 7.35801C6.5875 7.11934 6.87 7 7.2 7H16.8C17.13 7 17.4125 7.11934 17.6475 7.35801C17.8825 7.59668 18 7.88359 18 8.21875V15.5312C18 15.8664 17.8825 16.1533 17.6475 16.392C17.4125 16.6307 17.13 16.75 16.8 16.75H7.2ZM12 12.4844L7.2 9.4375V15.5312H16.8V9.4375L12 12.4844ZM12 11.2656L16.8 8.21875H7.2L12 11.2656ZM7.2 9.4375V8.21875V15.5312V9.4375Z" fill="#F4F1E6"/>
</svg>
