<svg width="24" height="24" viewBox="0 0 24 24" fill="none" xmlns="http://www.w3.org/2000/svg">
<rect width="24" height="24" rx="12" fill="#FF3B00"/>
<path d="M17.2355 8.51725C17.529 7.49743 17.0887 6.38275 17.0643 6.3116C16.9909 6.14558 16.8197 6.00328 16.624 6.00328C16.5751 6.00328 15.4499 5.90842 14.3247 6.7385C13.4442 6.57248 12.4413 6.52505 12.3924 6.52505C12.3679 6.52505 12.3679 6.52505 12.3435 6.52505C12.2946 6.52505 11.2917 6.57248 10.4111 6.7385C9.28595 5.90842 8.16079 6.00328 8.11187 6.00328C7.91618 6.027 7.74496 6.14558 7.67158 6.3116C7.64712 6.35903 7.18238 7.49743 7.50036 8.51725C6.93778 9.27618 6.4975 10.2723 6.88886 12.051C7.25576 13.6638 8.62553 14.565 10.0442 14.8733C9.92192 15.2053 9.873 15.6085 9.82408 16.0354C9.23703 16.0591 8.87013 15.7271 8.35647 15.2053C7.91618 14.7547 7.42698 14.233 6.6198 14.0669C6.35073 13.9958 6.08167 14.1618 6.00829 14.4464C5.95937 14.731 6.13059 14.9919 6.42412 15.0393C6.88886 15.1342 7.20684 15.4662 7.5982 15.8694C8.11187 16.3912 8.69891 17.0315 9.7507 17.0315H9.77516C9.77516 17.577 9.82408 18.0988 9.84854 18.5257C9.873 18.8103 10.1176 19 10.4111 18.9763C10.7046 18.9526 10.9003 18.7154 10.8759 18.4308C10.7291 16.8181 10.8514 15.1105 11.1205 14.8733C11.3161 14.7547 11.4384 14.5413 11.3651 14.3041C11.3161 14.0907 11.1205 13.9246 10.8759 13.9246C10.6557 13.9246 8.35647 13.8061 7.91618 11.8376C7.54928 10.2248 8.01403 9.51335 8.50323 8.94415C8.62553 8.80185 8.64999 8.5884 8.57661 8.39866C8.38093 7.99548 8.45431 7.42628 8.55215 7.04682C8.89459 7.09425 9.40825 7.23655 9.94638 7.68716C10.0687 7.80575 10.2399 7.82946 10.4111 7.80575C11.1694 7.61601 12.1967 7.56858 12.3679 7.56858C12.5147 7.56858 13.5665 7.61601 14.3247 7.80575C14.496 7.85318 14.6672 7.80575 14.7895 7.68716C15.3276 7.23655 15.8657 7.09425 16.1837 7.04682C16.2816 7.40257 16.3549 7.97176 16.1593 8.39866C16.0859 8.56468 16.1103 8.77813 16.2326 8.94415C16.7218 9.51335 17.1621 10.2248 16.8197 11.8376C16.3794 13.8061 14.0801 13.9246 13.8111 13.9484C13.5665 13.9484 13.3708 14.1144 13.3219 14.3278C13.273 14.5413 13.3708 14.7784 13.5665 14.897C13.86 15.1342 13.9823 16.8181 13.8355 18.4545C13.8111 18.7391 14.0312 18.9763 14.3003 19C14.3247 19 14.3247 19 14.3492 19C14.6183 19 14.8384 18.8103 14.8629 18.5494C14.9607 17.5059 15.0341 15.8931 14.6916 14.8733C16.1103 14.5887 17.4801 13.6638 17.847 12.051C18.2384 10.2723 17.8225 9.27618 17.2355 8.51725Z" fill="#F4F1E6"/>
</svg>
