<svg width="24" height="24" viewBox="0 0 24 24" fill="none" xmlns="http://www.w3.org/2000/svg">
<rect width="24" height="24" rx="12" fill="#FF3B00"/>
<path d="M7.85 8.2532C7.59347 8.2532 7.3764 8.17427 7.1988 8.0164C7.0212 7.84867 6.9324 7.64147 6.9324 7.3948C6.9324 7.14813 7.0212 6.94093 7.1988 6.7732C7.3764 6.60547 7.59347 6.5216 7.85 6.5216C8.12627 6.5216 8.3532 6.60547 8.5308 6.7732C8.71827 6.94093 8.812 7.14813 8.812 7.3948C8.812 7.6316 8.71827 7.83387 8.5308 8.0016C8.3532 8.16933 8.12627 8.2532 7.85 8.2532ZM7.8648 17.148C7.64773 17.148 7.48 17.0888 7.3616 16.9704C7.2432 16.8421 7.184 16.6695 7.184 16.4524V10.2956C7.184 10.0785 7.2432 9.9108 7.3616 9.7924C7.48 9.66413 7.64773 9.6 7.8648 9.6C8.08187 9.6 8.2496 9.66413 8.368 9.7924C8.4864 9.9108 8.5456 10.0785 8.5456 10.2956V16.4524C8.5456 16.6695 8.4864 16.8421 8.368 16.9704C8.2496 17.0888 8.08187 17.148 7.8648 17.148ZM11.3418 17.148C11.1247 17.148 10.957 17.0888 10.8386 16.9704C10.73 16.8421 10.6758 16.6695 10.6758 16.4524V10.2956C10.6758 9.83187 10.8978 9.6 11.3418 9.6C11.549 9.6 11.7118 9.66413 11.8302 9.7924C11.9486 9.9108 12.0078 10.0785 12.0078 10.2956V11.0208C12.7379 10.0736 13.7295 9.6 14.9826 9.6C15.9298 9.6 16.6599 9.87627 17.173 10.4288C17.6959 10.9715 17.9574 11.7411 17.9574 12.7376V16.4524C17.9574 16.6695 17.8932 16.8421 17.765 16.9704C17.6466 17.0888 17.4838 17.148 17.2766 17.148C17.0595 17.148 16.8918 17.0888 16.7734 16.9704C16.655 16.8421 16.5958 16.6695 16.5958 16.4524V12.7376C16.5958 12.0765 16.4379 11.5783 16.1222 11.2428C15.8163 10.9073 15.3575 10.7396 14.7458 10.7396C13.917 10.7396 13.2559 10.9863 12.7626 11.4796C12.2791 11.9631 12.0374 12.6192 12.0374 13.448V16.4524C12.0374 16.6695 11.9732 16.8421 11.845 16.9704C11.7266 17.0888 11.5588 17.148 11.3418 17.148Z" fill="#F4F1E6"/>
</svg>
