<svg width="24" height="24" viewBox="0 0 24 24" fill="none" xmlns="http://www.w3.org/2000/svg">
<mask id="mask0_644_316" style="mask-type:alpha" maskUnits="userSpaceOnUse" x="0" y="0" width="24" height="24">
<rect width="24" height="24" rx="12" fill="#FF3B00"/>
</mask>
<g mask="url(#mask0_644_316)">
<circle cx="12" cy="12" r="12" fill="#FF3B00"/>
<rect x="5" y="5" width="14" height="14" fill="#F4F1E6"/>
<path d="M20.4 2H3.6C3.1758 2.00048 2.76911 2.16921 2.46916 2.46916C2.16921 2.76911 2.00048 3.1758 2 3.6V20.4C2.00049 20.8242 2.16921 21.2309 2.46917 21.5308C2.76912 21.8308 3.1758 21.9995 3.6 22H20.4C20.8242 21.9995 21.2309 21.8308 21.5308 21.5308C21.8308 21.2309 21.9995 20.8242 22 20.4V3.6C21.9995 3.1758 21.8308 2.76911 21.5308 2.46916C21.2309 2.16921 20.8242 2.00048 20.4 2ZM8.8 16.8001C8.8 17.0123 8.71571 17.2158 8.56569 17.3658C8.41566 17.5158 8.21217 17.6001 8 17.6001C7.78783 17.6001 7.58434 17.5158 7.43432 17.3658C7.28429 17.2158 7.2 17.0123 7.2 16.8001V10.4001C7.2 10.1879 7.28429 9.98444 7.43432 9.83442C7.58434 9.68439 7.78783 9.6001 8 9.6001C8.21217 9.6001 8.41566 9.68439 8.56569 9.83442C8.71571 9.98444 8.8 10.1879 8.8 10.4001V16.8001ZM8 8.4C7.76266 8.4 7.53066 8.32962 7.33332 8.19776C7.13598 8.06591 6.98217 7.87849 6.89134 7.65922C6.80052 7.43995 6.77676 7.19867 6.82306 6.96589C6.86936 6.73311 6.98365 6.5193 7.15147 6.35147C7.3193 6.18365 7.53311 6.06936 7.76589 6.02306C7.99867 5.97676 8.23995 6.00052 8.45922 6.09134C8.67849 6.18217 8.86591 6.33598 8.99776 6.53332C9.12962 6.73066 9.2 6.96266 9.2 7.2C9.2 7.51826 9.07357 7.82348 8.84853 8.04853C8.62349 8.27357 8.31826 8.4 8 8.4ZM17.6 16.8001C17.6 17.0123 17.5157 17.2158 17.3657 17.3658C17.2157 17.5158 17.0122 17.6001 16.8 17.6001C16.5878 17.6001 16.3843 17.5158 16.2343 17.3658C16.0843 17.2158 16 17.0123 16 16.8001V13.2001C16 12.6697 15.7893 12.161 15.4142 11.7859C15.0391 11.4108 14.5304 11.2001 14 11.2001C13.4696 11.2001 12.9609 11.4108 12.5858 11.7859C12.2107 12.161 12 12.6697 12 13.2001V16.8001C12 17.0123 11.9157 17.2158 11.7657 17.3658C11.6157 17.5158 11.4122 17.6001 11.2 17.6001C10.9878 17.6001 10.7843 17.5158 10.6343 17.3658C10.4843 17.2158 10.4 17.0123 10.4 16.8001V10.4001C10.3999 10.2034 10.4723 10.0137 10.6033 9.86701C10.7344 9.72036 10.9148 9.62713 11.1102 9.60512C11.3057 9.58312 11.5023 9.63388 11.6627 9.74773C11.823 9.86157 11.9358 10.0305 11.9795 10.2222C12.5205 9.85458 13.1515 9.64136 13.8047 9.60551C14.4578 9.56966 15.1084 9.71254 15.6864 10.0188C16.2644 10.325 16.748 10.783 17.0852 11.3436C17.4224 11.9041 17.6003 12.546 17.6 13.2001V16.8001Z" fill="#FF3B00"/>
</g>
</svg>
